<?xml version="1.0" encoding="UTF-8"?><svg id="Layer_2" xmlns="http://www.w3.org/2000/svg" viewBox="0 0 1440 1070"><defs><style>.cls-1{fill:#00756e;}.cls-2{fill:#fff;}.cls-3{fill:#97c6c3;}.cls-4{fill:#cbe1e0;}</style></defs><g id="Layer_1-2"><g id="bg"><rect class="cls-4" width="1440" height="1070"/><rect class="cls-1" y="640" width="1440" height="430"/></g><path class="cls-2" d="M1278,210h-129.88c7.86-6.46,12.88-16.26,12.88-27.23v-5.54c0-12.84-6.87-24.07-17.14-30.23h37.14c20.99,0,38-17.01,38-38h0c0-20.99-17.01-38-38-38h-343c-20.99,0-38,17.01-38,38h0c0,20.99,17.01,38,38,38h138.14c-10.26,6.16-17.14,17.39-17.14,30.23v5.54c0,19.46,15.77,35.23,35.23,35.23h17.46c-8.94,6.95-14.69,17.8-14.69,30h0c0,20.99,17.01,38,38,38h243c20.99,0,38-17.01,38-38h0c0-20.99-17.01-38-38-38Z"/><path class="cls-2" d="M1370,535h-23.7c12.47-6.23,21.03-19.11,21.03-34h0c0-20.99-17.01-38-38-38h-73.32c-20.99,0-38,17.01-38,38h0c0,14.89,8.57,27.77,21.03,34h-98.04c-20.99,0-38,17.01-38,38h0c0,20.99,17.01,38,38,38h229c20.99,0,38-17.01,38-38h0c0-20.99-17.01-38-38-38Z"/><rect class="cls-2" x="60" y="405" width="281" height="76" rx="38" ry="38"/><path class="cls-3" d="M1393.35,844.41c-17.16,0-31.51-5.14-37.5-12.61-5.99,7.47-20.34,12.61-37.5,12.61s-31.51-5.14-37.5-12.61c-5.99,7.47-20.34,12.61-37.5,12.61-1.66,0-3-1.34-3-3s1.34-3,3-3c20.33,0,34.5-7.64,34.5-14.5,0-1.66,1.34-3,3-3s3,1.34,3,3c0,6.86,14.17,14.5,34.5,14.5s34.5-7.64,34.5-14.5c0-1.66,1.34-3,3-3s3,1.34,3,3c0,6.86,14.17,14.5,34.5,14.5,1.66,0,3,1.34,3,3s-1.34,3-3,3Z"/><path class="cls-3" d="M181.35,751.41c-17.16,0-31.51-5.14-37.5-12.61-5.99,7.47-20.34,12.61-37.5,12.61s-31.51-5.14-37.5-12.61c-5.99,7.47-20.34,12.61-37.5,12.61-1.66,0-3-1.34-3-3s1.34-3,3-3c20.33,0,34.5-7.64,34.5-14.5,0-1.66,1.34-3,3-3s3,1.34,3,3c0,6.86,14.17,14.5,34.5,14.5s34.5-7.64,34.5-14.5c0-1.66,1.34-3,3-3s3,1.34,3,3c0,6.86,14.17,14.5,34.5,14.5,1.66,0,3,1.34,3,3s-1.34,3-3,3Z"/><path class="cls-3" d="M721.35,800.41c-17.16,0-31.51-5.14-37.5-12.61-5.99,7.47-20.34,12.61-37.5,12.61s-31.51-5.14-37.5-12.61c-5.99,7.47-20.34,12.61-37.5,12.61-14.21,0-27.05-3.52-34.36-9.41-1.29-1.04-1.49-2.93-.45-4.22,1.04-1.29,2.93-1.49,4.22-.45,6.18,4.99,17.91,8.08,30.6,8.08,20.33,0,34.5-7.64,34.5-14.5,0-1.66,1.34-3,3-3s3,1.34,3,3c0,6.86,14.17,14.5,34.5,14.5s34.5-7.64,34.5-14.5c0-1.66,1.34-3,3-3s3,1.34,3,3c0,6.86,14.17,14.5,34.5,14.5,12.69,0,24.41-3.1,30.59-8.08,1.29-1.04,3.18-.84,4.22,.45s.84,3.18-.45,4.22c-7.31,5.89-20.15,9.41-34.36,9.41Z"/><path class="cls-2" d="M77.99,14c0,20.99,17.01,38,38,38h25.48c-8.23,6.97-13.46,17.37-13.46,29h0c0,20.99,17.01,38,38,38h115.99c20.99,0,38-17.01,38-38h0c0-20.99-17.01-38-38-38h-25.48c8.23-6.97,13.46-17.37,13.46-29h0C269.98,9.05,269.02,4.33,267.31,0H80.66c-1.72,4.33-2.67,9.05-2.67,14h0Z"/></g></svg>