<?xml version="1.0" encoding="UTF-8"?><svg id="Layer_2" xmlns="http://www.w3.org/2000/svg" viewBox="0 0 652.07 557.69"><defs><style>.cls-1{fill:#73b1ae;}.cls-2{fill:#97c6c3;}.cls-3{fill:#b1d4d2;}.cls-4{fill:#c17c50;}</style></defs><g id="Layer_1-2"><g><path class="cls-4" d="M598.08-.41h27.58c9.24,0,16.75,7.5,16.75,16.75V51.25c0,9.24-7.5,16.75-16.75,16.75h-27.58V-.41h0Z" transform="translate(112.93 392.23) rotate(-38.36)"/><path class="cls-2" d="M478.75,271.36c7.1-22.5,7.31-46.6,.6-69.22l96.67-76.52,.56,.71c1.48,1.87,3.65,3.08,6.02,3.36s4.76-.4,6.64-1.89l41.34-32.72c3.9-3.09,4.56-8.76,1.47-12.66l-.47-.59-55.02-69.51-.47-.59c-3.09-3.9-8.76-4.56-12.66-1.47l-41.34,32.72c-1.87,1.48-3.08,3.65-3.36,6.02s.4,4.76,1.89,6.64l.56,.71-96.67,76.52c-20.47-11.73-43.98-17.06-67.51-15.32-23.53,1.74-45.99,10.49-64.52,25.1L9.81,366.38c-5.39,4.3-8.86,10.56-9.64,17.4-.78,6.85,1.18,13.73,5.46,19.13l7.87,9.94,98.94,125.01,7.87,9.94c4.28,5.4,10.52,8.89,17.37,9.7,6.84,.81,13.73-1.13,19.15-5.39l282.68-223.74c18.48-14.67,32.15-34.53,39.25-57.03Z"/><path class="cls-3" d="M261,255.29h0c0-20.99-17.01-38-38-38h-24.83l-96.02,76h120.85c20.99,0,38-17.01,38-38Z"/><path class="cls-1" d="M520.63,55.63l55.14,69.23,.56,.71c1.48,1.87,3.65,3.08,6.02,3.36,2.37,.28,4.76-.4,6.64-1.89l41.13-32.55c1.87-1.48,3.08-3.65,3.36-6.02,.27-2.38-.4-4.76-1.89-6.64l-55.49-70.1c-3.09-3.9-8.76-4.56-12.66-1.47l-41.34,32.72c-1.87,1.48-3.08,3.65-3.36,6.02-.28,2.37,.4,4.76,1.89,6.64l.56,.71"/></g></g></svg>