<?xml version="1.0" encoding="utf-8"?>
<!-- Generator: Adobe Illustrator 26.5.0, SVG Export Plug-In . SVG Version: 6.00 Build 0)  -->
<svg version="1.1" id="Layer_2_00000044891579685865579030000017928351869556311733_"
	 xmlns="http://www.w3.org/2000/svg" xmlns:xlink="http://www.w3.org/1999/xlink" x="0px" y="0px" viewBox="0 0 397.8 238.9"
	 style="enable-background:new 0 0 397.8 238.9;" xml:space="preserve">
<style type="text/css">
	.st0{fill:#E6F4F4;}
	.st1{font-family:'PingFangHK-Semibold-B5pc-H';}
	.st2{font-size:26.27px;}
</style>
<g id="Layer_1-2">
	<g>
		<path class="st0" d="M390,44C378.6,15,358.6-4.4,345.4,0.8c0,0,0,0,0,0l0,0l-334.7,132l0,0c-13,5.4-14.4,33-3,62
			c11.4,28.9,31.3,48.2,44.5,43.3l0,0l0.1,0c0,0,0.1,0,0.1,0s0.1,0,0.1,0l334.4-131.9l0,0c0,0,0,0,0,0
			C400.1,100.9,401.5,73.1,390,44z"/>
		<text transform="matrix(0.9302 -0.367 0.367 0.9302 43.61 194.7)" class="st1 st2">學會把每個社團都玩得很認真</text>
	</g>
</g>
</svg>
