<?xml version="1.0" encoding="UTF-8"?><svg id="Layer_2" xmlns="http://www.w3.org/2000/svg" viewBox="0 0 492.72 193"><defs><style>.cls-1{fill:#73b1ae;}.cls-2{fill:#97c6c3;}.cls-3{fill:#c17c50;}</style></defs><g id="Layer_1-2"><g><path class="cls-3" d="M460.79,78.16h17.08c8.2,0,14.85,6.66,14.85,14.85v47.25c0,8.2-6.66,14.85-14.85,14.85h-17.08V78.16h0Z"/><path class="cls-2" d="M448.93,63.3h-41.22c-6.37,0-11.55,5.18-11.55,11.55v3.53h-68.09l-31.63-52.44C289.8,9.27,273.32-1.13,255.03,.1L88.43,15.97c-13.51,.9-24.1,12.21-24.1,25.76V178.61c-.67-.93-1.03-1.91-1.03-2.94,0-1.66-1.34-3-3-3s-3,1.34-3,3c0,6.48-14.62,11.33-27.7,11.33-10.27,0-19.74-2.49-24.71-6.5-1.29-1.04-3.18-.84-4.22,.45-1.04,1.29-.84,3.18,.45,4.22,6.08,4.9,16.72,7.83,28.47,7.83,14,0,25.5-3.96,30.7-9.93,5.2,5.97,16.7,9.93,30.7,9.93s25.5-3.96,30.7-9.93c5.2,5.97,16.7,9.93,30.7,9.93s25.5-3.96,30.7-9.93c5.2,5.97,16.7,9.93,30.7,9.93s25.5-3.96,30.7-9.93c5.2,5.97,16.7,9.93,30.7,9.93s25.5-3.96,30.7-9.93c5.2,5.97,16.7,9.93,30.7,9.93,11.75,0,22.39-2.92,28.47-7.82,1.29-1.04,1.49-2.93,.45-4.22s-2.93-1.49-4.22-.45c-4.97,4.01-14.44,6.5-24.71,6.5-7.01,0-14.46-1.39-19.87-3.68l11.31-28.42h68.09v3.53c0,6.37,5.18,11.55,11.55,11.55h41.22c6.37,0,11.55-5.18,11.55-11.55V78.38s0-3.53,0-3.53c0-6.37-5.18-11.55-11.55-11.55Z"/><rect class="cls-1" x="360.86" y="78.32" width="35.29" height="76.66"/></g></g></svg>