<?xml version="1.0" encoding="UTF-8"?><svg id="Layer_2" xmlns="http://www.w3.org/2000/svg" viewBox="0 0 602.36 163"><defs><style>.cls-1{fill:#97c6c3;}.cls-2{fill:#c17c50;}</style></defs><g id="Layer_1-2"><g><path class="cls-2" d="M547.75,59.83h20.96c18.58,0,33.66,15.08,33.66,33.66v.19c0,18.58-15.08,33.66-33.66,33.66h-20.96V59.83h0Z"/><path class="cls-1" d="M537.45,46.98h-136.4c-2.26-26.04-24.33-46.98-50.94-46.98H92.6c-18.68,0-33.96,15.28-33.96,33.96v118.85c0,.14,0,.28,.01,.42-5.94,2.27-13.78,3.77-22.83,3.77-12.83,0-24.69-3.13-30.94-8.17-1.29-1.04-3.18-.84-4.22,.45-1.04,1.29-.84,3.18,.45,4.22,7.38,5.95,20.35,9.5,34.71,9.5,17.36,0,31.87-5.21,37.9-12.76,6.03,7.56,20.54,12.76,37.9,12.76s31.87-5.21,37.9-12.76c6.03,7.56,20.54,12.76,37.9,12.76s31.87-5.21,37.9-12.76c6.03,7.56,20.54,12.76,37.9,12.76s31.87-5.21,37.9-12.76c6.03,7.56,20.54,12.76,37.9,12.76s31.87-5.21,37.9-12.76c6.03,7.56,20.54,12.76,37.9,12.76,14.35,0,27.32-3.55,34.7-9.5,1.29-1.04,1.49-2.93,.45-4.22s-2.93-1.49-4.22-.45c-6.25,5.04-18.11,8.17-30.94,8.17-6.61,0-12.57-.8-17.63-2.12,2.36-5.73,3.72-11.96,3.86-18.49h136.4c6.23,0,11.32-5.09,11.32-11.32V58.29c0-6.23-5.09-11.32-11.32-11.32Z"/></g></g></svg>