<?xml version="1.0" encoding="UTF-8"?><svg id="Layer_2" xmlns="http://www.w3.org/2000/svg" viewBox="0 0 487.7 163"><defs><style>.cls-1{fill:#73b1ae;}.cls-2{fill:#97c6c3;}.cls-3{fill:#c17c50;}</style></defs><g id="Layer_1-2"><path class="cls-2" d="M464.39,122.34V49.26h-91.1V26.48c0-14.63-11.86-26.48-26.48-26.48H69.29c-14.63,0-26.48,11.86-26.48,26.48V156.24c-3.17,.49-6.61,.76-10.28,.76-11.48,0-22.07-2.79-27.64-7.29-1.29-1.04-3.18-.84-4.22,.45-1.04,1.29-.84,3.18,.45,4.22,6.69,5.4,18.43,8.62,31.41,8.62,15.69,0,28.52-4.48,34.09-11.19,5.57,6.71,18.4,11.19,34.09,11.19s28.52-4.48,34.09-11.19c5.57,6.71,18.4,11.19,34.09,11.19s28.52-4.48,34.09-11.19c5.57,6.71,18.4,11.19,34.09,11.19s28.52-4.48,34.09-11.19c5.57,6.71,18.4,11.19,34.09,11.19s28.52-4.48,34.09-11.19c5.57,6.71,18.4,11.19,34.09,11.19,12.97,0,24.71-3.22,31.41-8.61,1.29-1.04,1.49-2.93,.45-4.22s-2.93-1.49-4.22-.45c-5.58,4.49-16.17,7.29-27.64,7.29-.05,0-.09,0-.14,0v-34.65h91.1Z"/><rect class="cls-3" x="465.15" y="55.61" width="22.55" height="60.38"/><rect class="cls-1" x="438.08" y="34.43" width="27.37" height="102.75" rx="9.11" ry="9.11"/></g></svg>