<svg width="40" height="534" xmlns="http://www.w3.org/2000/svg">
  <g fill-rule="nonzero" fill="none">
    <path d="M10.52 276.868c.352 2.912.992 5.92 1.92 9.056-.512.128-1.088.256-1.664.384l.48 1.952c2.56-.64 4.8-1.312 6.752-2.08l-.576-1.824c-1.024.384-2.08.736-3.168 1.056-.576-1.952-1.024-3.904-1.344-5.856 2.24 1.92 6.048 4.384 11.488 7.328l.8-2.08c-1.472-.768-2.848-1.504-4.128-2.176-.192-1.28-.384-2.528-.544-3.808 2.24 1.536 5.216 3.072 8.896 4.608l.832-2.176c-3.392-1.184-6.4-2.56-9.024-4.128-.416-.288-.704-.608-.864-.96l-2.112.576.704 4.672c-2.656-1.6-4.544-2.944-5.696-4.096-.256-.288-.48-.64-.672-1.056l-2.08.608zm-8.768 23.424c0 1.728.512 2.88 1.472 3.456.96.576 3.104 1.024 6.368 1.28l.768-2.272c-2.528-.128-4.224-.352-5.056-.672-.864-.352-1.312-1.088-1.312-2.176v-6.176c.032-.896.48-1.376 1.312-1.376H16.12v10.464h12.736v-13.728h-2.24v11.456H18.36v-10.464H4.44c-1.792 0-2.688.896-2.688 2.72v7.488zm1.92-13.92l.48 1.952c2.24-.48 4.224-1.024 5.952-1.664l-.608-1.824c-1.856.608-3.776 1.12-5.824 1.536zm-1.44-4.288l.448 2.048c2.368-.32 4.576-.672 6.592-1.088l-.416-1.952c-1.92.384-4.128.704-6.624.992zm-.992-3.744c2.144.64 4.608 1.024 7.424 1.216l.256-2.048c-2.656-.192-4.992-.608-7.04-1.28l-.64 2.112zm-.288 49.712c0 1.44.832 2.176 2.496 2.176h6.08c-2.688 1.824-4.832 3.968-6.432 6.432l1.952 1.12c1.184-1.984 2.656-3.712 4.448-5.248 1.056 1.504 2.528 2.848 4.416 4.032l1.344-1.632c-1.824-1.024-3.264-2.208-4.288-3.584.512-.384 1.088-.768 1.696-1.12h3.776v7.232h2.08v-5.056l8.608 2.336h.928v-8.224l1.76.48.32-2.144-9.056-2.592v8.64l-2.56-.704v-9.344h-2.08v7.168h-5.344c-2.4-2.24-4.32-4.768-5.728-7.616l-2.08 1.248c1.44 2.4 3.168 4.512 5.184 6.368h-4.48c-.672 0-1.024-.256-1.024-.736 0-.768.064-1.6.16-2.432l-2.176.48v2.72zm.576-18.784c.704 3.712 1.6 7.168 2.656 10.368h2.112c-.448-1.28-.832-2.624-1.184-3.968h9.568v4.064h2.112v-4.064h3.616v3.008h2.016v-7.296c1.6 1.152 3.36 2.24 5.216 3.232-1.344 1.408-3.2 3.04-5.504 4.928l1.568 1.472c2.176-1.856 4.224-3.808 6.144-5.792v-1.6c-3.2-1.664-5.984-3.52-8.384-5.568l-1.696 1.248 1.92 1.536h-1.28v2.592h-3.616V309.3H14.68v4.128H4.568c-.32-1.536-.608-3.104-.864-4.704l-2.176.544zm21.408 22.144v-6.304l3.264.896v6.336l-3.264-.928zm-12.704-5.984l1.76 1.152c1.248-1.28 2.304-2.688 3.168-4.224l-1.696-1.152c-.8 1.44-1.888 2.848-3.232 4.224zm-3.008-7.2c1.632.672 3.52 1.216 5.696 1.664l.448-1.728c-2.24-.448-4.096-.96-5.536-1.536l-.608 1.6zm-.96-7.808l.416 1.664c2.432-.384 4.608-.832 6.496-1.344l-.608-1.76c-1.984.576-4.096 1.056-6.304 1.44zm9.696 42.16l.8 2.208c2.624-.704 5.504-1.76 8.672-3.104l-.64-2.144c-1.216.512-2.496.992-3.808 1.44-.704-1.504-1.408-3.552-2.144-6.112h6.944c.448 3.744 1.28 6.816 2.56 9.248l1.92-1.152c-1.344-2.752-2.24-6.176-2.624-10.336h-7.936c-.672 0-1.216-.352-1.632-1.056l-2.112.832c.928 3.744 1.92 6.848 2.976 9.28-.96.32-1.952.608-2.976.896zm.224 4.032c1.376 1.344 2.912 2.368 4.608 3.072 1.44.544 3.36.96 5.76 1.28v4.832c-3.104-.032-5.12-.128-6.08-.32-1.312-.224-1.984-.832-2.048-1.856 0-.8.064-1.792.128-2.976l-2.048.672c-.064.96-.096 1.824-.096 2.56.064 1.856.96 3.008 2.752 3.52 1.408.384 4.64.64 9.664.704v-12.768h-2.272v3.424c-1.952-.256-3.552-.608-4.8-1.056-1.376-.576-2.656-1.376-3.84-2.432l-1.728 1.344zM.792 346.468h1.472v17.792H.824v2.272h14.24v-22.336H.792v2.272zm8.864 7.84v-7.84h3.264v7.84H9.656zm0 9.952v-7.648h3.264v7.648H9.656zm-5.248-9.952v-7.84h3.2v7.84h-3.2zm0 9.952v-7.648h3.2v7.648h-3.2zm7.84 36.944h5.088v-2.272l11.616.704v-7.392h-1.856v5.248l-2.304-.16v-4.864H23.16v4.768l-2.016-.128v-4.736h-1.632v4.608l-2.176-.16v-18.208l2.176-.192v4.64h1.632v-4.768l2.016-.16v4.832h1.632v-4.96l2.08-.16c.448 2.432.896 4.192 1.28 5.28l1.792-.768c-.672-1.984-1.184-4.224-1.504-6.688l-11.104.832v-2.304H12.28v2.208h3.328v22.592h-3.36v2.208zm11.52-16.736c.64 1.344 1.312 2.496 1.984 3.456-.608.864-1.216 1.632-1.824 2.304l1.12 1.12c.576-.64 1.12-1.376 1.664-2.176.576.64 1.28 1.312 2.08 1.952l.832-1.312c-.736-.576-1.408-1.248-2.016-1.952.576-.832 1.12-1.76 1.696-2.752l-1.056-1.088c-.512.896-1.056 1.76-1.568 2.56-.608-.896-1.12-1.888-1.504-2.976l-1.408.864zm-5.728 6.144l1.152 1.12c.576-.704 1.184-1.472 1.76-2.304.576.672 1.28 1.344 2.112 2.016l.864-1.376c-.768-.608-1.44-1.28-2.08-2.016.512-.832 1.056-1.696 1.568-2.624l-1.056-1.12c-.48.832-.96 1.664-1.472 2.464-.576-.896-1.056-1.856-1.44-2.88l-1.408.864c.64 1.344 1.28 2.464 1.92 3.392-.64.928-1.28 1.76-1.92 2.464zM.984 386.548c0 1.696.8 2.56 2.4 2.56h2.848v12.608H8.12v-12.608h1.024c.864 2.624 1.76 5.024 2.72 7.168h1.728v-17.632h-1.728v14.048c-.48-1.376-1.088-3.264-1.856-5.696H8.12v-13.28H6.232v13.28H4.056c-.832 0-1.248-.384-1.248-1.152 0-1.248.032-2.4.064-3.424l-1.888.512v3.616zm.928 47.856h2.304v-12.576h8.128v9.888h2.24v-9.888h7.392v10.528h2.24v-10.528h5.696v-2.336h-5.696v-6.848c1.44.48 2.976.896 4.64 1.248l.416-2.336c-5.344-1.056-9.6-3.104-12.736-6.112l-1.888 1.472c1.984 1.984 4.416 3.616 7.328 4.896v7.68h-7.392v-9.408h-2.24v9.408H4.216v-13.28H1.912v28.192zm-.704 26.608c0 2.688 1.248 4.16 3.68 4.48 2.496.32 9.088.48 19.712.48v-10.208c1.664.576 3.456 1.024 5.344 1.408l.288-2.272c-4.544-.832-8.384-2.336-11.52-4.576l-1.824 1.376c1.632 1.248 3.456 2.304 5.472 3.2v8.8c-9.216-.064-14.752-.192-16.544-.384-1.632-.256-2.464-1.12-2.464-2.624 0-.992.032-2.144.096-3.488l-2.112.544c-.064 1.536-.128 2.624-.128 3.264zm.672-19.648h2.752v5.824H2.808v2.24h21.824v-5.152c1.6.64 3.36 1.12 5.248 1.504l.32-2.304c-1.92-.288-3.776-.736-5.568-1.376v-2.976H1.88v2.24zm13.984 5.824v-5.824h6.592v5.824h-6.592zM8.952 458.42l1.28 1.824c1.984-1.216 4.32-2.944 6.976-5.248l-1.152-1.856c-2.624 2.208-4.992 3.968-7.104 5.28zm-2.176-11.232v-5.824h7.008v5.824H6.776zM.76 498.148l1.824 1.344c1.568-2.88 3.456-5.216 5.664-7.04 3.872 2.56 8.608 3.936 14.208 4.128v2.496h2.24v-10.208c1.6.48 3.296.896 5.152 1.216l.384-2.176c-5.472-.896-9.824-2.656-13.088-5.216l-1.728 1.408c1.92 1.6 4.256 2.944 7.04 4.032v6.272c-4.8-.16-8.928-1.28-12.352-3.328 2.432-1.6 5.216-2.592 8.352-3.04l-.576-1.984c-3.648.544-6.88 1.792-9.696 3.712-2.112-1.664-3.904-3.808-5.312-6.4l-1.92 1.216c1.536 2.592 3.36 4.768 5.472 6.528-2.176 1.856-4.064 4.192-5.664 7.04zm.544-23.904h2.272v8.96h11.168v-4.512h6.528v5.44h2.24v-5.44h6.24v-2.208h-6.24v-5.792h-2.24v5.792h-6.528v-4.448H1.304v2.208zm4.352 6.72v-6.72h7.008v6.72H5.656zm-4.704 34.64c0 1.888.896 2.848 2.688 2.848h2.112v9.92h4.192v3.488h1.888v-3.488h4.32v-9.92h1.984v9.472h6.24v-9.472h1.984v12.544h1.984v-12.544h1.92v-2.304h-1.92v-12.544H26.36v12.544h-1.984v-9.472h-6.24v9.472h-1.984V505.62h-1.856v10.528h-2.464V502.74H9.944v13.408H7.608V505.62H5.752v10.528H4.184c-.8 0-1.216-.448-1.216-1.312 0-1.152.064-2.368.16-3.648l-2.176.48v3.936zm18.944 10.016v-7.168h2.72v7.168h-2.72zm0-9.472v-7.168h2.72v7.168h-2.72zm-8.064 10.016v-7.712h2.464v7.712h-2.464zm-4.224 0v-7.712h2.336v7.712H7.608z" fill="#000"/>
    <g fill="#231F20">
      <path d="M19.2377358.5c10.7245284 0 18.86792458 9.12245455 18.86792458 21.2027273C38.10566038 33.783 29.9698113 42.913 19.2377358 42.913 8.5056604 42.913.3698113 33.7905455.3698113 21.7027273.3698113 9.61490909 8.5132075.5 19.2377358.5zm0 35.0335455c6.1283019 0 10.7245284-5.9835455 10.7245284-13.8308182 0-7.8472728-4.5962265-13.82327275-10.7245284-13.82327275-6.1283018 0-10.7245283 5.98354545-10.7245283 13.82327275 0 7.8397272 4.5962265 13.8308182 10.7245283 13.8308182zM27.9245283 73.4192727H1.0037736v-6.6777272h5.4490566C2.6162485 64.7675622.2513758 60.7693129.3698113 56.4570909c0-6.4513636 4.0150944-10.8050909 10.0981132-10.8050909h17.4566038v6.6173636H12.7924528c-2.8 0-4.7018868 2.7918182-4.7018868 7.0323637 0 4.4140909 1.954717 7.4398182 4.8075472 7.4398182h15.0264151v6.6777272zM20.3773585 90.0343636h-9.1169811c-1.7962265 0-2.6415095 1.2223637-2.6415095 3.7727273v4.2405455H1.0037736v-4.9950909c0-6.391 2.8-9.7034546 8.4075472-9.7034546h10.9660377v-5.7496364h7.5471698v5.7496364h6.26415095l1.69056603 6.6777273H27.9245283v8.0208182h-7.5471698v-8.0132728zM20.3773585 113.161182h-9.1169811c-1.7962265 0-2.6415095 1.222363-2.6415095 3.772727v4.240546H1.0037736v-4.995091c0-6.391 2.8-9.703455 8.4075472-9.703455h10.9660377v-5.757182h7.5471698v5.757182h6.26415095l1.69056603 6.677727H27.9245283v8.020819h-7.5471698v-8.013273zM27.9245283 155.227091H1.0037736v-6.624909H6.4c-3.8344498-2.229844-6.1487835-6.37156-6.0377358-10.805091 0-8.134 6.0830188-14.291091 14.1132075-14.291091s14.1132075 6.157091 14.1132075 14.321273c.1094073 4.433126-2.2044913 8.574063-6.0377358 10.805091h5.3735849v6.594727zm-13.4716981-6.624909c3.645283 0 6.3924528-3.893455 6.3924528-9.122455 0-5.229-2.7471698-9.054545-6.3924528-9.054545s-6.3924528 3.833091-6.3924528 9.054545c0 5.221455 2.7773584 9.122455 6.4226415 9.122455h-.0301887zM35.77358491 157.377545C38.1509434 157.377545 40 159.709091 40 162.727273s-1.8490566 5.402545-4.22641509 5.402545c-2.37735849 0-4.27924529-2.324-4.27924529-5.402545 0-3.078546 1.84905661-5.349728 4.27924529-5.349728zm-7.84905661 2.029728v6.624909H1.0037736v-6.624909h26.9207547zM18.3396226 199.036H.9811321v-6.624909h14.7698113c3.1169811 0 5.1245283-2.965364 5.1245283-7.545455 0-4.761181-2.0603774-8.013272-5.2301887-8.013272H1.0037736v-6.624909h26.9207547v6.624909h-5.6528302c4.1207547 2.263636 6.2869594 6.036363 6.2869594 10.857909.0300217 6.790909-4.0379028 11.325727-10.2190349 11.325727zM11.4716981 214.142l-2.8528302-4.293364H1.0037736v-6.624909h38.045283v6.624909H18.6716981v1.275182l9.2528302 9.990182v11.099364l-12.2264151-12.782-14.6943396 13.129091v-8.594273zM22.8301887 236.446364c2.9056604 0 5.1245283 2.731454 5.1245283 6.391 0 3.659545-2.2188679 6.443818-5.1245283 6.443818s-5.1773585-2.731455-5.1773585-6.443818c0-3.712364 2.2188679-6.391 5.1773585-6.391zM6.1358491 236.446364c2.9056603 0 5.1773584 2.731454 5.1773584 6.391 0 3.659545-2.2641509 6.443818-5.1773584 6.443818-2.9132076 0-5.1320755-2.731455-5.1320755-6.443818 0-3.712364 2.2188679-6.391 5.1320755-6.391z"/>
    </g>
  </g>
</svg>
