<?xml version="1.0" encoding="UTF-8"?>
<svg width="40px" height="534px" viewBox="0 0 40 534" version="1.1" xmlns="http://www.w3.org/2000/svg" xmlns:xlink="http://www.w3.org/1999/xlink">
    <title>logo</title>
    <g id="Page-1" stroke="none" stroke-width="1" fill="none" fill-rule="evenodd">
        <g id="desktop_features" transform="translate(-26.000000, -48.000000)" fill-rule="nonzero">
            <g id="logo" transform="translate(26.000000, 48.000000)">
                <path d="M-111.632,409.004 C-108.72,408.652 -105.712,408.012 -102.576,407.084 C-102.448,407.596 -102.32,408.172 -102.192,408.748 L-100.24,408.268 C-100.88,405.708 -101.552,403.468 -102.32,401.516 L-104.144,402.092 C-103.76,403.116 -103.408,404.172 -103.088,405.26 C-105.04,405.836 -106.992,406.284 -108.944,406.604 C-107.024,404.364 -104.56,400.556 -101.616,395.116 L-103.696,394.316 C-104.464,395.788 -105.2,397.164 -105.872,398.444 C-107.152,398.636 -108.4,398.828 -109.68,398.988 C-108.144,396.748 -106.608,393.772 -105.072,390.092 L-107.248,389.26 C-108.432,392.652 -109.808,395.66 -111.376,398.284 C-111.664,398.7 -111.984,398.988 -112.336,399.148 L-111.76,401.26 L-107.088,400.556 C-108.688,403.212 -110.032,405.1 -111.184,406.252 C-111.472,406.508 -111.824,406.732 -112.24,406.924 L-111.632,409.004 Z M-88.208,417.772 C-86.48,417.772 -85.328,417.26 -84.752,416.3 C-84.176,415.34 -83.728,413.196 -83.472,409.932 L-85.744,409.164 C-85.872,411.692 -86.096,413.388 -86.416,414.22 C-86.768,415.084 -87.504,415.532 -88.592,415.532 L-94.768,415.532 C-95.664,415.5 -96.144,415.052 -96.144,414.22 L-96.144,403.404 L-85.68,403.404 L-85.68,390.668 L-99.408,390.668 L-99.408,392.908 L-87.952,392.908 L-87.952,401.164 L-98.416,401.164 L-98.416,415.084 C-98.416,416.876 -97.52,417.772 -95.696,417.772 L-88.208,417.772 Z M-102.128,415.852 L-100.176,415.372 C-100.656,413.132 -101.2,411.148 -101.84,409.42 L-103.664,410.028 C-103.056,411.884 -102.544,413.804 -102.128,415.852 Z M-106.416,417.292 L-104.368,416.844 C-104.688,414.476 -105.04,412.268 -105.456,410.252 L-107.408,410.668 C-107.024,412.588 -106.704,414.796 -106.416,417.292 Z M-110.16,418.284 C-109.52,416.14 -109.136,413.676 -108.944,410.86 L-110.992,410.604 C-111.184,413.26 -111.6,415.596 -112.272,417.644 L-110.16,418.284 Z M-60.448,418.572 C-59.008,418.572 -58.272,417.74 -58.272,416.076 L-58.272,409.996 C-56.448,412.684 -54.304,414.828 -51.84,416.428 L-50.72,414.476 C-52.704,413.292 -54.432,411.82 -55.968,410.028 C-54.464,408.972 -53.12,407.5 -51.936,405.612 L-53.568,404.268 C-54.592,406.092 -55.776,407.532 -57.152,408.556 C-57.536,408.044 -57.92,407.468 -58.272,406.86 L-58.272,403.084 L-51.04,403.084 L-51.04,401.004 L-56.096,401.004 L-53.76,392.396 L-53.76,391.468 L-61.984,391.468 L-61.504,389.708 L-63.648,389.388 L-66.24,398.444 L-57.6,398.444 L-58.304,401.004 L-67.648,401.004 L-67.648,403.084 L-60.48,403.084 L-60.48,408.428 C-62.72,410.828 -65.248,412.748 -68.096,414.156 L-66.848,416.236 C-64.448,414.796 -62.336,413.068 -60.48,411.052 L-60.48,415.532 C-60.48,416.204 -60.736,416.556 -61.216,416.556 C-61.984,416.556 -62.816,416.492 -63.648,416.396 L-63.168,418.572 L-60.448,418.572 Z M-79.232,417.996 C-75.52,417.292 -72.064,416.396 -68.864,415.34 L-68.864,413.228 C-70.144,413.676 -71.488,414.06 -72.832,414.412 L-72.832,404.844 L-68.768,404.844 L-68.768,402.732 L-72.832,402.732 L-72.832,399.116 L-69.824,399.116 L-69.824,397.1 L-77.12,397.1 C-75.968,395.5 -74.88,393.74 -73.888,391.884 C-72.48,393.228 -70.848,395.084 -68.96,397.388 L-67.488,395.82 C-69.344,393.644 -71.296,391.596 -73.28,389.676 L-74.88,389.676 C-76.544,392.876 -78.4,395.66 -80.448,398.06 L-79.2,399.756 L-77.664,397.836 L-77.664,399.116 L-75.072,399.116 L-75.072,402.732 L-79.2,402.732 L-79.2,404.844 L-75.072,404.844 L-75.072,414.956 C-76.608,415.276 -78.176,415.564 -79.776,415.82 L-79.232,417.996 Z M-57.088,396.588 L-63.392,396.588 L-62.496,393.324 L-56.16,393.324 L-57.088,396.588 Z M-63.072,409.292 L-61.92,407.532 C-63.2,406.284 -64.608,405.228 -66.144,404.364 L-67.296,406.06 C-65.856,406.86 -64.448,407.948 -63.072,409.292 Z M-70.272,412.3 C-69.6,410.668 -69.056,408.78 -68.608,406.604 L-70.336,406.156 C-70.784,408.396 -71.296,410.252 -71.872,411.692 L-70.272,412.3 Z M-78.08,413.26 L-76.416,412.844 C-76.8,410.412 -77.248,408.236 -77.76,406.348 L-79.52,406.956 C-78.944,408.94 -78.464,411.052 -78.08,413.26 Z M-35.92,403.564 L-33.712,402.764 C-34.416,400.14 -35.472,397.26 -36.816,394.092 L-38.96,394.732 C-38.448,395.948 -37.968,397.228 -37.52,398.54 C-39.024,399.244 -41.072,399.948 -43.632,400.684 L-43.632,393.74 C-39.888,393.292 -36.816,392.46 -34.384,391.18 L-35.536,389.26 C-38.288,390.604 -41.712,391.5 -45.872,391.884 L-45.872,399.82 C-45.872,400.492 -46.224,401.036 -46.928,401.452 L-46.096,403.564 C-42.352,402.636 -39.248,401.644 -36.816,400.588 C-36.496,401.548 -36.208,402.54 -35.92,403.564 Z M-31.888,403.34 C-30.544,401.964 -29.52,400.428 -28.816,398.732 C-28.272,397.292 -27.856,395.372 -27.536,392.972 L-22.704,392.972 C-22.736,396.076 -22.832,398.092 -23.024,399.052 C-23.248,400.364 -23.856,401.036 -24.88,401.1 C-25.68,401.1 -26.672,401.036 -27.856,400.972 L-27.184,403.02 C-26.224,403.084 -25.36,403.116 -24.624,403.116 C-22.768,403.052 -21.616,402.156 -21.104,400.364 C-20.72,398.956 -20.464,395.724 -20.4,390.7 L-33.168,390.7 L-33.168,392.972 L-29.744,392.972 C-30,394.924 -30.352,396.524 -30.8,397.772 C-31.376,399.148 -32.176,400.428 -33.232,401.612 L-31.888,403.34 Z M-42.032,418.732 L-42.032,417.26 L-24.24,417.26 L-24.24,418.7 L-21.968,418.7 L-21.968,404.46 L-44.304,404.46 L-44.304,418.732 L-42.032,418.732 Z M-34.192,409.868 L-42.032,409.868 L-42.032,406.604 L-34.192,406.604 L-34.192,409.868 Z M-24.24,409.868 L-31.888,409.868 L-31.888,406.604 L-24.24,406.604 L-24.24,409.868 Z M-34.192,415.116 L-42.032,415.116 L-42.032,411.916 L-34.192,411.916 L-34.192,415.116 Z M-24.24,415.116 L-31.888,415.116 L-31.888,411.916 L-24.24,411.916 L-24.24,415.116 Z M12.704,407.276 L12.704,402.188 L10.432,402.188 L11.136,390.572 L3.744,390.572 L3.744,392.428 L8.992,392.428 L8.832,394.732 L3.968,394.732 L3.968,396.364 L8.736,396.364 L8.608,398.38 L3.872,398.38 L3.872,400.012 L8.48,400.012 L8.32,402.188 L-9.888,402.188 L-10.08,400.012 L-5.44,400.012 L-5.44,398.38 L-10.208,398.38 L-10.368,396.364 L-5.536,396.364 L-5.536,394.732 L-10.496,394.732 L-10.656,392.652 C-8.224,392.204 -6.464,391.756 -5.376,391.372 L-6.144,389.58 C-8.128,390.252 -10.368,390.764 -12.832,391.084 L-12,402.188 L-14.304,402.188 L-14.304,407.244 L-12.096,407.244 L-12.096,403.916 L10.496,403.916 L10.496,407.276 L12.704,407.276 Z M-4.032,395.756 C-2.688,395.116 -1.536,394.444 -0.576,393.772 C0.288,394.38 1.056,394.988 1.728,395.596 L2.848,394.476 C2.208,393.9 1.472,393.356 0.672,392.812 C1.312,392.236 1.984,391.532 2.624,390.732 L1.312,389.9 C0.736,390.636 0.064,391.308 -0.64,391.916 C-1.472,391.34 -2.4,390.796 -3.392,390.22 L-4.48,391.276 C-3.584,391.788 -2.72,392.332 -1.92,392.844 C-2.816,393.452 -3.808,393.964 -4.896,394.348 L-4.032,395.756 Z M2.112,401.484 L3.232,400.332 C2.528,399.756 1.76,399.148 0.928,398.572 C1.6,397.996 2.272,397.292 2.944,396.46 L1.568,395.596 C0.96,396.364 0.288,397.036 -0.448,397.676 C-1.28,397.164 -2.144,396.62 -3.072,396.108 L-4.192,397.164 C-3.36,397.644 -2.528,398.124 -1.728,398.636 C-2.624,399.212 -3.584,399.692 -4.608,400.076 L-3.744,401.484 C-2.4,400.844 -1.28,400.204 -0.352,399.564 C0.576,400.204 1.408,400.844 2.112,401.484 Z M-1.952,418.54 C-0.256,418.54 0.608,417.74 0.608,416.14 L0.608,413.292 L13.216,413.292 L13.216,411.404 L0.608,411.404 L0.608,410.38 C3.232,409.516 5.632,408.62 7.776,407.66 L7.776,405.932 L-9.856,405.932 L-9.856,407.66 L4.192,407.66 C2.816,408.14 0.928,408.748 -1.504,409.516 L-1.504,411.404 L-14.784,411.404 L-14.784,413.292 L-1.504,413.292 L-1.504,415.468 C-1.504,416.3 -1.888,416.716 -2.656,416.716 C-3.904,416.716 -5.056,416.684 -6.08,416.652 L-5.568,418.54 L-1.952,418.54 Z M45.904,417.612 L45.904,415.308 L33.328,415.308 L33.328,407.18 L43.216,407.18 L43.216,404.94 L33.328,404.94 L33.328,397.548 L43.856,397.548 L43.856,395.308 L33.328,395.308 L33.328,389.612 L30.992,389.612 L30.992,395.308 L24.144,395.308 C24.624,393.868 25.04,392.332 25.392,390.668 L23.056,390.252 C22,395.596 19.952,399.852 16.944,402.988 L18.416,404.876 C20.4,402.892 22.032,400.46 23.312,397.548 L30.992,397.548 L30.992,404.94 L21.584,404.94 L21.584,407.18 L30.992,407.18 L30.992,415.308 L17.712,415.308 L17.712,417.612 L45.904,417.612 Z M72.512,418.316 C75.2,418.316 76.672,417.068 76.992,414.636 C77.312,412.14 77.472,405.548 77.472,394.924 L67.264,394.924 C67.84,393.26 68.288,391.468 68.672,389.58 L66.4,389.292 C65.568,393.836 64.064,397.676 61.824,400.812 L63.2,402.636 C64.448,401.004 65.504,399.18 66.4,397.164 L75.2,397.164 C75.136,406.38 75.008,411.916 74.816,413.708 C74.56,415.34 73.696,416.172 72.192,416.172 C71.2,416.172 70.048,416.14 68.704,416.076 L69.248,418.188 C70.784,418.252 71.872,418.316 72.512,418.316 Z M52.864,417.644 L52.864,414.892 L58.688,414.892 L58.688,416.716 L60.928,416.716 L60.928,394.892 L55.776,394.892 C56.416,393.292 56.896,391.532 57.28,389.644 L54.976,389.324 C54.688,391.244 54.24,393.1 53.6,394.892 L50.624,394.892 L50.624,417.644 L52.864,417.644 Z M58.688,403.66 L52.864,403.66 L52.864,397.068 L58.688,397.068 L58.688,403.66 Z M69.92,410.572 L71.744,409.292 C70.528,407.308 68.8,404.972 66.496,402.316 L64.64,403.468 C66.848,406.092 68.608,408.46 69.92,410.572 Z M58.688,412.748 L52.864,412.748 L52.864,405.74 L58.688,405.74 L58.688,412.748 Z M109.648,418.764 L110.992,416.94 C108.112,415.372 105.776,413.484 103.952,411.276 C106.512,407.404 107.888,402.668 108.08,397.068 L110.576,397.068 L110.576,394.828 L100.368,394.828 C100.848,393.228 101.264,391.532 101.584,389.676 L99.408,389.292 C98.512,394.764 96.752,399.116 94.192,402.38 L95.6,404.108 C97.2,402.188 98.544,399.852 99.632,397.068 L105.904,397.068 C105.744,401.868 104.624,405.996 102.576,409.42 C100.976,406.988 99.984,404.204 99.536,401.068 L97.552,401.644 C98.096,405.292 99.344,408.524 101.264,411.34 C99.6,413.452 97.456,415.244 94.864,416.652 L96.08,418.572 C98.672,417.036 100.848,415.212 102.608,413.1 C104.464,415.276 106.8,417.164 109.648,418.764 Z M85.744,418.22 L85.744,415.948 L94.704,415.948 L94.704,404.78 L90.192,404.78 L90.192,398.252 L95.632,398.252 L95.632,396.012 L90.192,396.012 L90.192,389.772 L87.984,389.772 L87.984,396.012 L82.192,396.012 L82.192,398.252 L87.984,398.252 L87.984,404.78 L83.536,404.78 L83.536,418.22 L85.744,418.22 Z M92.464,413.868 L85.744,413.868 L85.744,406.86 L92.464,406.86 L92.464,413.868 Z M127.104,418.572 C128.992,418.572 129.952,417.676 129.952,415.884 L129.952,413.772 L139.872,413.772 L139.872,409.58 L143.36,409.58 L143.36,407.692 L139.872,407.692 L139.872,403.372 L129.952,403.372 L129.952,401.388 L139.424,401.388 L139.424,395.148 L129.952,395.148 L129.952,393.164 L142.496,393.164 L142.496,391.18 L129.952,391.18 L129.952,389.26 L127.648,389.26 L127.648,391.18 L115.104,391.18 L115.104,393.164 L127.648,393.164 L127.648,395.148 L118.176,395.148 L118.176,401.388 L127.648,401.388 L127.648,403.372 L117.12,403.372 L117.12,405.228 L127.648,405.228 L127.648,407.692 L114.24,407.692 L114.24,409.58 L127.648,409.58 L127.648,411.916 L117.12,411.916 L117.12,413.772 L127.648,413.772 L127.648,415.34 C127.648,416.14 127.2,416.556 126.336,416.556 C125.184,416.556 123.968,416.492 122.688,416.396 L123.168,418.572 L127.104,418.572 Z M137.12,399.628 L129.952,399.628 L129.952,396.908 L137.12,396.908 L137.12,399.628 Z M127.648,399.628 L120.48,399.628 L120.48,396.908 L127.648,396.908 L127.648,399.628 Z M137.664,407.692 L129.952,407.692 L129.952,405.228 L137.664,405.228 L137.664,407.692 Z M137.664,411.916 L129.952,411.916 L129.952,409.58 L137.664,409.58 L137.664,411.916 Z" id="紀錄留學生的故事" fill="#000000" transform="translate(15.512000, 404.012000) rotate(90.000000) translate(-15.512000, -404.012000) "></path>
                <g id="logo_v2" transform="translate(20.000000, 125.000000) rotate(90.000000) translate(-20.000000, -125.000000) translate(-104.500000, 105.000000)" fill="#231F20">
                    <path d="M0,20.7622642 C0,10.0377358 9.12245455,1.89433962 21.2027273,1.89433962 C33.283,1.89433962 42.413,10.0301887 42.413,20.7622642 C42.413,31.4943396 33.2905455,39.6301887 21.2027273,39.6301887 C9.11490909,39.6301887 0,31.4867925 0,20.7622642 Z M35.0335455,20.7622642 C35.0335455,14.6339623 29.05,10.0377358 21.2027273,10.0377358 C13.3554545,10.0377358 7.37945455,14.6339623 7.37945455,20.7622642 C7.37945455,26.890566 13.363,31.4867925 21.2027273,31.4867925 C29.0424545,31.4867925 35.0335455,26.890566 35.0335455,20.7622642 Z" id="Shape"></path>
                    <path d="M72.9192727,12.0754717 L72.9192727,38.9962264 L66.2415455,38.9962264 L66.2415455,33.5471698 C64.2675622,37.3837515 60.2693129,39.7486242 55.9570909,39.6301887 C49.5057273,39.6301887 45.152,35.6150943 45.152,29.5320755 L45.152,12.0754717 L51.7693636,12.0754717 L51.7693636,27.2075472 C51.7693636,30.0075472 54.5611818,31.909434 58.8017273,31.909434 C63.2158182,31.909434 66.2415455,29.954717 66.2415455,27.1018868 L66.2415455,12.0754717 L72.9192727,12.0754717 Z" id="Path"></path>
                    <path d="M89.5343636,19.6226415 L89.5343636,28.7396226 C89.5343636,30.5358491 90.7567273,31.3811321 93.3070909,31.3811321 L97.5476364,31.3811321 L97.5476364,38.9962264 L92.5525455,38.9962264 C86.1615455,38.9962264 82.8490909,36.1962264 82.8490909,30.5886792 L82.8490909,19.6226415 L77.0994545,19.6226415 L77.0994545,12.0754717 L82.8490909,12.0754717 L82.8490909,5.81132075 L89.5268182,4.12075472 L89.5268182,12.0754717 L97.5476364,12.0754717 L97.5476364,19.6226415 L89.5343636,19.6226415 Z" id="Path"></path>
                    <path d="M112.661182,19.6226415 L112.661182,28.7396226 C112.661182,30.5358491 113.883545,31.3811321 116.433909,31.3811321 L120.674455,31.3811321 L120.674455,38.9962264 L115.679364,38.9962264 C109.288364,38.9962264 105.975909,36.1962264 105.975909,30.5886792 L105.975909,19.6226415 L100.218727,19.6226415 L100.218727,12.0754717 L105.975909,12.0754717 L105.975909,5.81132075 L112.653636,4.12075472 L112.653636,12.0754717 L120.674455,12.0754717 L120.674455,19.6226415 L112.661182,19.6226415 Z" id="Path"></path>
                    <path d="M154.727091,12.0754717 L154.727091,38.9962264 L148.102182,38.9962264 L148.102182,33.6 C145.872338,37.4344498 141.730622,39.7487835 137.297091,39.6377358 C129.163091,39.6377358 123.006,33.554717 123.006,25.5245283 C123.006,17.4943396 129.163091,11.4113208 137.327273,11.4113208 C141.760399,11.3019135 145.901336,13.6158121 148.132364,17.4490566 L148.132364,12.0754717 L154.727091,12.0754717 Z M148.102182,25.5471698 C148.102182,21.9018868 144.208727,19.154717 138.979727,19.154717 C133.750727,19.154717 129.925182,21.9018868 129.925182,25.5471698 C129.925182,29.1924528 133.758273,31.9396226 138.979727,31.9396226 C144.201182,31.9396226 148.102182,29.1622642 148.102182,25.5169811 L148.102182,25.5471698 Z" id="Shape"></path>
                    <path d="M156.877545,4.22641509 C156.877545,1.8490566 159.209091,0 162.227273,0 C165.245455,0 167.629818,1.8490566 167.629818,4.22641509 C167.629818,6.60377358 165.305818,8.50566038 162.227273,8.50566038 C159.148727,8.50566038 156.877545,6.65660377 156.877545,4.22641509 Z M158.907273,12.0754717 L165.532182,12.0754717 L165.532182,38.9962264 L158.907273,38.9962264 L158.907273,12.0754717 Z" id="Shape"></path>
                    <path d="M198.536,21.6603774 L198.536,39.0188679 L191.911091,39.0188679 L191.911091,24.2490566 C191.911091,21.1320755 188.945727,19.1245283 184.365636,19.1245283 C179.604455,19.1245283 176.352364,21.1849057 176.352364,24.354717 L176.352364,38.9962264 L169.727455,38.9962264 L169.727455,12.0754717 L176.352364,12.0754717 L176.352364,17.7283019 C178.616,13.6075472 182.388727,11.4413425 187.210273,11.4413425 C194.001182,11.4113208 198.536,15.4792453 198.536,21.6603774 Z" id="Path"></path>
                    <polygon id="Path" points="213.642 28.5283019 209.348636 31.3811321 209.348636 38.9962264 202.723727 38.9962264 202.723727 0.950943396 209.348636 0.950943396 209.348636 21.3283019 210.623818 21.3283019 220.614 12.0754717 231.713364 12.0754717 218.931364 24.3018868 232.060455 38.9962264 223.466182 38.9962264"></polygon>
                    <path d="M235.946364,17.1698113 C235.946364,14.2641509 238.677818,12.045283 242.337364,12.045283 C245.996909,12.045283 248.781182,14.2641509 248.781182,17.1698113 C248.781182,20.0754717 246.049727,22.3471698 242.337364,22.3471698 C238.625,22.3471698 235.946364,20.1283019 235.946364,17.1698113 Z" id="Path"></path>
                    <path d="M235.946364,33.8641509 C235.946364,30.9584906 238.677818,28.6867925 242.337364,28.6867925 C245.996909,28.6867925 248.781182,30.9509434 248.781182,33.8641509 C248.781182,36.7773585 246.049727,38.9962264 242.337364,38.9962264 C238.625,38.9962264 235.946364,36.7773585 235.946364,33.8641509 Z" id="Path"></path>
                </g>
            </g>
        </g>
    </g>
</svg>