<?xml version="1.0" encoding="UTF-8"?>
<svg width="222px" height="20px" viewBox="0 0 222 20" version="1.1" xmlns="http://www.w3.org/2000/svg" xmlns:xlink="http://www.w3.org/1999/xlink">
    <title>Group</title>
    <g id="mobile" stroke="none" stroke-width="1" fill="none" fill-rule="evenodd">
        <g id="Mobile_navi" transform="translate(-20.000000, -8.000000)" fill="#000000">
            <g id="Group-7" transform="translate(0.000000, -1.000000)">
                <g id="Group" transform="translate(20.000000, 9.000000)">
                    <text id="紀錄留學生的故事" font-family="PingFangSC-Regular, PingFang SC" font-size="14" font-weight="normal" line-spacing="20" letter-spacing="0.175">
                        <tspan x="108" y="15">紀錄</tspan>
                        <tspan x="136.35" y="15" font-family="PingFangTC-Regular, PingFang TC">留學生的故事</tspan>
                    </text>
                    <g id="logo_v2" transform="translate(0.000000, 2.000000)" fill-rule="nonzero">
                        <path d="M0,8.30490566 C0,4.01509434 3.66363636,0.757735849 8.51515152,0.757735849 C13.3666667,0.757735849 17.0333333,4.01207547 17.0333333,8.30490566 C17.0333333,12.5977358 13.369697,15.8520755 8.51515152,15.8520755 C3.66060606,15.8520755 0,12.594717 0,8.30490566 Z M14.069697,8.30490566 C14.069697,5.85358491 11.6666667,4.01509434 8.51515152,4.01509434 C5.36363636,4.01509434 2.96363636,5.85358491 2.96363636,8.30490566 C2.96363636,10.7562264 5.36666667,12.594717 8.51515152,12.594717 C11.6636364,12.594717 14.069697,10.7562264 14.069697,8.30490566 Z" id="Shape"></path>
                        <path d="M29.2848485,4.83018868 L29.2848485,15.5984906 L26.6030303,15.5984906 L26.6030303,13.4188679 C25.8102659,14.9535006 24.2045433,15.8994497 22.4727273,15.8520755 C19.8818182,15.8520755 18.1333333,14.2460377 18.1333333,11.8128302 L18.1333333,4.83018868 L20.7909091,4.83018868 L20.7909091,10.8830189 C20.7909091,12.0030189 21.9121212,12.7637736 23.6151515,12.7637736 C25.3878788,12.7637736 26.6030303,11.9818868 26.6030303,10.8407547 L26.6030303,4.83018868 L29.2848485,4.83018868 Z" id="Path"></path>
                        <path d="M35.9575758,7.8490566 L35.9575758,11.4958491 C35.9575758,12.2143396 36.4484848,12.5524528 37.4727273,12.5524528 L39.1757576,12.5524528 L39.1757576,15.5984906 L37.169697,15.5984906 C34.6030303,15.5984906 33.2727273,14.4784906 33.2727273,12.2354717 L33.2727273,7.8490566 L30.9636364,7.8490566 L30.9636364,4.83018868 L33.2727273,4.83018868 L33.2727273,2.3245283 L35.9545455,1.64830189 L35.9545455,4.83018868 L39.1757576,4.83018868 L39.1757576,7.8490566 L35.9575758,7.8490566 Z" id="Path"></path>
                        <path d="M45.2454545,7.8490566 L45.2454545,11.4958491 C45.2454545,12.2143396 45.7363636,12.5524528 46.7606061,12.5524528 L48.4636364,12.5524528 L48.4636364,15.5984906 L46.4575758,15.5984906 C43.8909091,15.5984906 42.5606061,14.4784906 42.5606061,12.2354717 L42.5606061,7.8490566 L40.2484848,7.8490566 L40.2484848,4.83018868 L42.5606061,4.83018868 L42.5606061,2.3245283 L45.2424242,1.64830189 L45.2424242,4.83018868 L48.4636364,4.83018868 L48.4636364,7.8490566 L45.2454545,7.8490566 Z" id="Path"></path>
                        <path d="M62.1393939,4.83018868 L62.1393939,15.5984906 L59.4787879,15.5984906 L59.4787879,13.44 C58.5832683,14.9737799 56.9199286,15.8995134 55.1393939,15.8550943 C51.8727273,15.8550943 49.4,13.4218868 49.4,10.2098113 C49.4,6.99773585 51.8727273,4.5645283 55.1515152,4.5645283 C56.931887,4.52076539 58.594914,5.44632483 59.4909091,6.97962264 L59.4909091,4.83018868 L62.1393939,4.83018868 Z M59.4787879,10.2188679 C59.4787879,8.76075472 57.9151515,7.66188679 55.8151515,7.66188679 C53.7151515,7.66188679 52.1787879,8.76075472 52.1787879,10.2188679 C52.1787879,11.6769811 53.7181818,12.7758491 55.8151515,12.7758491 C57.9121212,12.7758491 59.4787879,11.6649057 59.4787879,10.2067925 L59.4787879,10.2188679 Z" id="Shape"></path>
                        <path d="M63.0030303,1.69056604 C63.0030303,0.739622642 63.9393939,0 65.1515152,0 C66.3636364,0 67.3212121,0.739622642 67.3212121,1.69056604 C67.3212121,2.64150943 66.3878788,3.40226415 65.1515152,3.40226415 C63.9151515,3.40226415 63.0030303,2.66264151 63.0030303,1.69056604 Z M63.8181818,4.83018868 L66.4787879,4.83018868 L66.4787879,15.5984906 L63.8181818,15.5984906 L63.8181818,4.83018868 Z" id="Shape"></path>
                        <path d="M79.7333333,8.66415094 L79.7333333,15.6075472 L77.0727273,15.6075472 L77.0727273,9.69962264 C77.0727273,8.45283019 75.8818182,7.64981132 74.0424242,7.64981132 C72.130303,7.64981132 70.8242424,8.47396226 70.8242424,9.74188679 L70.8242424,15.5984906 L68.1636364,15.5984906 L68.1636364,4.83018868 L70.8242424,4.83018868 L70.8242424,7.09132075 C71.7333333,5.44301887 73.2484848,4.57653702 75.1848485,4.57653702 C77.9121212,4.5645283 79.7333333,6.19169811 79.7333333,8.66415094 Z" id="Path"></path>
                        <polygon id="Path" points="85.8 11.4113208 84.0757576 12.5524528 84.0757576 15.5984906 81.4151515 15.5984906 81.4151515 0.380377358 84.0757576 0.380377358 84.0757576 8.53132075 84.5878788 8.53132075 88.6 4.83018868 93.0575758 4.83018868 87.9242424 9.72075472 93.1969697 15.5984906 89.7454545 15.5984906"></polygon>
                        <path d="M94.7575758,6.86792453 C94.7575758,5.70566038 95.8545455,4.81811321 97.3242424,4.81811321 C98.7939394,4.81811321 99.9121212,5.70566038 99.9121212,6.86792453 C99.9121212,8.03018868 98.8151515,8.93886792 97.3242424,8.93886792 C95.8333333,8.93886792 94.7575758,8.05132075 94.7575758,6.86792453 Z" id="Path"></path>
                        <path d="M94.7575758,13.5456604 C94.7575758,12.3833962 95.8545455,11.474717 97.3242424,11.474717 C98.7939394,11.474717 99.9121212,12.3803774 99.9121212,13.5456604 C99.9121212,14.7109434 98.8151515,15.5984906 97.3242424,15.5984906 C95.8333333,15.5984906 94.7575758,14.7109434 94.7575758,13.5456604 Z" id="Path"></path>
                    </g>
                </g>
            </g>
        </g>
    </g>
</svg>